<mxfile host="Electron" modified="2024-01-04T10:27:05.201Z" agent="Mozilla/5.0 (X11; Linux x86_64) AppleWebKit/537.36 (KHTML, like Gecko) draw.io/22.1.2 Chrome/114.0.5735.289 Electron/25.9.4 Safari/537.36" etag="ZuYgaU3v0Jxb9O8rAmkO" version="22.1.2" type="device">
  <diagram id="Veo9nSYYzP6D0tlLbmu8" name="第 1 页">
    <mxGraphModel dx="1420" dy="829" grid="1" gridSize="10" guides="1" tooltips="1" connect="1" arrows="1" fold="1" page="1" pageScale="1" pageWidth="2339" pageHeight="3300" background="#ffffff" math="0" shadow="1">
      <root>
        <mxCell id="0" />
        <mxCell id="1" parent="0" />
        <mxCell id="_iO_yhp-t2HHhwFX2R3x-111" value="" style="group" parent="1" vertex="1" connectable="0">
          <mxGeometry x="480" y="160" width="890" height="470" as="geometry" />
        </mxCell>
        <mxCell id="_iO_yhp-t2HHhwFX2R3x-102" value="" style="group" parent="_iO_yhp-t2HHhwFX2R3x-111" vertex="1" connectable="0">
          <mxGeometry width="890" height="470" as="geometry" />
        </mxCell>
        <mxCell id="_iO_yhp-t2HHhwFX2R3x-8" value="" style="group" parent="_iO_yhp-t2HHhwFX2R3x-102" vertex="1" connectable="0">
          <mxGeometry x="110" y="250" width="61" height="110" as="geometry" />
        </mxCell>
        <mxCell id="_iO_yhp-t2HHhwFX2R3x-9" value="" style="endArrow=none;html=1;rounded=0;" parent="_iO_yhp-t2HHhwFX2R3x-8" edge="1">
          <mxGeometry width="50" height="50" relative="1" as="geometry">
            <mxPoint as="sourcePoint" />
            <mxPoint x="50" y="27.5" as="targetPoint" />
          </mxGeometry>
        </mxCell>
        <mxCell id="_iO_yhp-t2HHhwFX2R3x-10" value="" style="endArrow=none;html=1;rounded=0;" parent="_iO_yhp-t2HHhwFX2R3x-8" edge="1">
          <mxGeometry width="50" height="50" relative="1" as="geometry">
            <mxPoint x="50" y="82.5" as="sourcePoint" />
            <mxPoint x="50" y="27.5" as="targetPoint" />
          </mxGeometry>
        </mxCell>
        <mxCell id="_iO_yhp-t2HHhwFX2R3x-11" value="" style="endArrow=none;html=1;rounded=0;" parent="_iO_yhp-t2HHhwFX2R3x-8" edge="1">
          <mxGeometry width="50" height="50" relative="1" as="geometry">
            <mxPoint y="34.375" as="sourcePoint" />
            <mxPoint as="targetPoint" />
          </mxGeometry>
        </mxCell>
        <mxCell id="_iO_yhp-t2HHhwFX2R3x-12" value="" style="endArrow=none;html=1;rounded=0;" parent="_iO_yhp-t2HHhwFX2R3x-8" edge="1">
          <mxGeometry width="50" height="50" relative="1" as="geometry">
            <mxPoint y="110" as="sourcePoint" />
            <mxPoint y="75.625" as="targetPoint" />
          </mxGeometry>
        </mxCell>
        <mxCell id="_iO_yhp-t2HHhwFX2R3x-13" value="" style="endArrow=none;html=1;rounded=0;" parent="_iO_yhp-t2HHhwFX2R3x-8" edge="1">
          <mxGeometry width="50" height="50" relative="1" as="geometry">
            <mxPoint y="110" as="sourcePoint" />
            <mxPoint x="50" y="82.5" as="targetPoint" />
          </mxGeometry>
        </mxCell>
        <mxCell id="_iO_yhp-t2HHhwFX2R3x-14" value="" style="endArrow=none;html=1;rounded=0;" parent="_iO_yhp-t2HHhwFX2R3x-8" edge="1">
          <mxGeometry width="50" height="50" relative="1" as="geometry">
            <mxPoint y="75.625" as="sourcePoint" />
            <mxPoint x="20" y="55" as="targetPoint" />
          </mxGeometry>
        </mxCell>
        <mxCell id="_iO_yhp-t2HHhwFX2R3x-15" value="" style="endArrow=none;html=1;rounded=0;" parent="_iO_yhp-t2HHhwFX2R3x-8" edge="1">
          <mxGeometry width="50" height="50" relative="1" as="geometry">
            <mxPoint y="34.375" as="sourcePoint" />
            <mxPoint x="20" y="55" as="targetPoint" />
          </mxGeometry>
        </mxCell>
        <mxCell id="_iO_yhp-t2HHhwFX2R3x-16" value="SUB" style="text;html=1;align=center;verticalAlign=middle;resizable=0;points=[];autosize=1;strokeColor=none;fillColor=none;rotation=90;" parent="_iO_yhp-t2HHhwFX2R3x-8" vertex="1">
          <mxGeometry x="11" y="40" width="50" height="30" as="geometry" />
        </mxCell>
        <mxCell id="_iO_yhp-t2HHhwFX2R3x-23" value="" style="group" parent="_iO_yhp-t2HHhwFX2R3x-102" vertex="1" connectable="0">
          <mxGeometry x="260" y="160" width="40" height="100" as="geometry" />
        </mxCell>
        <mxCell id="_iO_yhp-t2HHhwFX2R3x-24" value="" style="endArrow=none;html=1;rounded=0;" parent="_iO_yhp-t2HHhwFX2R3x-23" edge="1">
          <mxGeometry width="50" height="50" relative="1" as="geometry">
            <mxPoint as="sourcePoint" />
            <mxPoint x="40" y="21.428571428571427" as="targetPoint" />
          </mxGeometry>
        </mxCell>
        <mxCell id="_iO_yhp-t2HHhwFX2R3x-25" value="" style="endArrow=none;html=1;rounded=0;" parent="_iO_yhp-t2HHhwFX2R3x-23" edge="1">
          <mxGeometry width="50" height="50" relative="1" as="geometry">
            <mxPoint x="40" y="21.428571428571427" as="sourcePoint" />
            <mxPoint x="40" y="78.57142857142857" as="targetPoint" />
          </mxGeometry>
        </mxCell>
        <mxCell id="_iO_yhp-t2HHhwFX2R3x-26" value="" style="endArrow=none;html=1;rounded=0;" parent="_iO_yhp-t2HHhwFX2R3x-23" edge="1">
          <mxGeometry width="50" height="50" relative="1" as="geometry">
            <mxPoint x="40" y="78.57142857142857" as="sourcePoint" />
            <mxPoint y="100" as="targetPoint" />
          </mxGeometry>
        </mxCell>
        <mxCell id="_iO_yhp-t2HHhwFX2R3x-27" value="" style="endArrow=none;html=1;rounded=0;" parent="_iO_yhp-t2HHhwFX2R3x-23" edge="1">
          <mxGeometry width="50" height="50" relative="1" as="geometry">
            <mxPoint as="sourcePoint" />
            <mxPoint y="100" as="targetPoint" />
          </mxGeometry>
        </mxCell>
        <mxCell id="_iO_yhp-t2HHhwFX2R3x-28" value="&lt;font style=&quot;font-size: 15px;&quot;&gt;MUX&lt;/font&gt;" style="text;html=1;align=center;verticalAlign=middle;resizable=0;points=[];autosize=1;strokeColor=none;fillColor=none;strokeWidth=4;rotation=90;" parent="_iO_yhp-t2HHhwFX2R3x-23" vertex="1">
          <mxGeometry x="-10" y="35.714285714285715" width="60" height="30" as="geometry" />
        </mxCell>
        <mxCell id="_iO_yhp-t2HHhwFX2R3x-38" value="Sign" style="edgeStyle=orthogonalEdgeStyle;orthogonalLoop=1;jettySize=auto;html=1;rounded=0;" parent="_iO_yhp-t2HHhwFX2R3x-102" edge="1">
          <mxGeometry x="-0.0071" y="10" width="80" relative="1" as="geometry">
            <mxPoint x="160" y="290" as="sourcePoint" />
            <mxPoint x="280" y="250" as="targetPoint" />
            <mxPoint as="offset" />
          </mxGeometry>
        </mxCell>
        <mxCell id="_iO_yhp-t2HHhwFX2R3x-42" value="sign" style="edgeStyle=elbowEdgeStyle;orthogonalLoop=1;jettySize=auto;html=1;rounded=0;elbow=vertical;" parent="_iO_yhp-t2HHhwFX2R3x-102" edge="1">
          <mxGeometry width="80" relative="1" as="geometry">
            <mxPoint x="211" y="290" as="sourcePoint" />
            <mxPoint x="280" y="100" as="targetPoint" />
            <Array as="points">
              <mxPoint x="240" y="150" />
            </Array>
          </mxGeometry>
        </mxCell>
        <mxCell id="_iO_yhp-t2HHhwFX2R3x-44" value="" style="group" parent="_iO_yhp-t2HHhwFX2R3x-102" vertex="1" connectable="0">
          <mxGeometry x="260" y="10" width="40" height="100" as="geometry" />
        </mxCell>
        <mxCell id="_iO_yhp-t2HHhwFX2R3x-45" value="" style="endArrow=none;html=1;rounded=0;" parent="_iO_yhp-t2HHhwFX2R3x-44" edge="1">
          <mxGeometry width="50" height="50" relative="1" as="geometry">
            <mxPoint as="sourcePoint" />
            <mxPoint x="40" y="21.428571428571427" as="targetPoint" />
          </mxGeometry>
        </mxCell>
        <mxCell id="_iO_yhp-t2HHhwFX2R3x-46" value="" style="endArrow=none;html=1;rounded=0;" parent="_iO_yhp-t2HHhwFX2R3x-44" edge="1">
          <mxGeometry width="50" height="50" relative="1" as="geometry">
            <mxPoint x="40" y="21.428571428571427" as="sourcePoint" />
            <mxPoint x="40" y="78.57142857142857" as="targetPoint" />
          </mxGeometry>
        </mxCell>
        <mxCell id="_iO_yhp-t2HHhwFX2R3x-47" value="" style="endArrow=none;html=1;rounded=0;" parent="_iO_yhp-t2HHhwFX2R3x-44" edge="1">
          <mxGeometry width="50" height="50" relative="1" as="geometry">
            <mxPoint x="40" y="78.57142857142857" as="sourcePoint" />
            <mxPoint y="100" as="targetPoint" />
          </mxGeometry>
        </mxCell>
        <mxCell id="_iO_yhp-t2HHhwFX2R3x-48" value="" style="endArrow=none;html=1;rounded=0;" parent="_iO_yhp-t2HHhwFX2R3x-44" edge="1">
          <mxGeometry width="50" height="50" relative="1" as="geometry">
            <mxPoint as="sourcePoint" />
            <mxPoint y="100" as="targetPoint" />
          </mxGeometry>
        </mxCell>
        <mxCell id="_iO_yhp-t2HHhwFX2R3x-49" value="&lt;font style=&quot;font-size: 15px;&quot;&gt;MUX&lt;/font&gt;" style="text;html=1;align=center;verticalAlign=middle;resizable=0;points=[];autosize=1;strokeColor=none;fillColor=none;strokeWidth=4;rotation=90;" parent="_iO_yhp-t2HHhwFX2R3x-44" vertex="1">
          <mxGeometry x="-10" y="35.714285714285715" width="60" height="30" as="geometry" />
        </mxCell>
        <mxCell id="_iO_yhp-t2HHhwFX2R3x-53" value="" style="edgeStyle=none;orthogonalLoop=1;jettySize=auto;html=1;rounded=0;" parent="_iO_yhp-t2HHhwFX2R3x-102" edge="1">
          <mxGeometry width="80" relative="1" as="geometry">
            <mxPoint y="30" as="sourcePoint" />
            <mxPoint x="260" y="30" as="targetPoint" />
            <Array as="points" />
          </mxGeometry>
        </mxCell>
        <mxCell id="_iO_yhp-t2HHhwFX2R3x-54" value="" style="edgeStyle=none;orthogonalLoop=1;jettySize=auto;html=1;rounded=0;" parent="_iO_yhp-t2HHhwFX2R3x-102" edge="1">
          <mxGeometry width="80" relative="1" as="geometry">
            <mxPoint y="80" as="sourcePoint" />
            <mxPoint x="260" y="80" as="targetPoint" />
            <Array as="points" />
          </mxGeometry>
        </mxCell>
        <mxCell id="_iO_yhp-t2HHhwFX2R3x-55" value="" style="edgeStyle=none;orthogonalLoop=1;jettySize=auto;html=1;rounded=0;" parent="_iO_yhp-t2HHhwFX2R3x-102" edge="1">
          <mxGeometry width="80" relative="1" as="geometry">
            <mxPoint y="180" as="sourcePoint" />
            <mxPoint x="260" y="180" as="targetPoint" />
            <Array as="points" />
          </mxGeometry>
        </mxCell>
        <mxCell id="_iO_yhp-t2HHhwFX2R3x-56" value="" style="edgeStyle=none;orthogonalLoop=1;jettySize=auto;html=1;rounded=0;" parent="_iO_yhp-t2HHhwFX2R3x-102" edge="1">
          <mxGeometry width="80" relative="1" as="geometry">
            <mxPoint y="230" as="sourcePoint" />
            <mxPoint x="260" y="230" as="targetPoint" />
            <Array as="points" />
          </mxGeometry>
        </mxCell>
        <mxCell id="_iO_yhp-t2HHhwFX2R3x-57" value="frac_a" style="text;html=1;align=center;verticalAlign=middle;resizable=0;points=[];autosize=1;strokeColor=none;fillColor=none;" parent="_iO_yhp-t2HHhwFX2R3x-102" vertex="1">
          <mxGeometry x="10" y="150" width="60" height="30" as="geometry" />
        </mxCell>
        <mxCell id="_iO_yhp-t2HHhwFX2R3x-58" value="frac_b" style="text;html=1;align=center;verticalAlign=middle;resizable=0;points=[];autosize=1;strokeColor=none;fillColor=none;" parent="_iO_yhp-t2HHhwFX2R3x-102" vertex="1">
          <mxGeometry x="10" y="195" width="60" height="30" as="geometry" />
        </mxCell>
        <mxCell id="_iO_yhp-t2HHhwFX2R3x-59" value="frac_a" style="text;html=1;align=center;verticalAlign=middle;resizable=0;points=[];autosize=1;strokeColor=none;fillColor=none;" parent="_iO_yhp-t2HHhwFX2R3x-102" vertex="1">
          <mxGeometry x="20" width="60" height="30" as="geometry" />
        </mxCell>
        <mxCell id="_iO_yhp-t2HHhwFX2R3x-60" value="frac_b" style="text;html=1;align=center;verticalAlign=middle;resizable=0;points=[];autosize=1;strokeColor=none;fillColor=none;" parent="_iO_yhp-t2HHhwFX2R3x-102" vertex="1">
          <mxGeometry x="20" y="45" width="60" height="30" as="geometry" />
        </mxCell>
        <mxCell id="_iO_yhp-t2HHhwFX2R3x-61" value="" style="edgeStyle=none;orthogonalLoop=1;jettySize=auto;html=1;rounded=0;" parent="_iO_yhp-t2HHhwFX2R3x-102" edge="1">
          <mxGeometry width="80" relative="1" as="geometry">
            <mxPoint x="300" y="59.579999999999984" as="sourcePoint" />
            <mxPoint x="420" y="60" as="targetPoint" />
            <Array as="points" />
          </mxGeometry>
        </mxCell>
        <mxCell id="_iO_yhp-t2HHhwFX2R3x-62" value="" style="edgeStyle=none;orthogonalLoop=1;jettySize=auto;html=1;rounded=0;" parent="_iO_yhp-t2HHhwFX2R3x-102" edge="1">
          <mxGeometry width="80" relative="1" as="geometry">
            <mxPoint x="300" y="209.57999999999998" as="sourcePoint" />
            <mxPoint x="420" y="210" as="targetPoint" />
            <Array as="points" />
          </mxGeometry>
        </mxCell>
        <mxCell id="_iO_yhp-t2HHhwFX2R3x-65" value="Complement" style="whiteSpace=wrap;html=1;aspect=fixed;rotation=0;" parent="_iO_yhp-t2HHhwFX2R3x-102" vertex="1">
          <mxGeometry x="420" y="170" width="80" height="80" as="geometry" />
        </mxCell>
        <mxCell id="_iO_yhp-t2HHhwFX2R3x-68" value="shift" style="rounded=0;whiteSpace=wrap;html=1;" parent="_iO_yhp-t2HHhwFX2R3x-102" vertex="1">
          <mxGeometry x="420" y="10" width="40" height="73.5" as="geometry" />
        </mxCell>
        <mxCell id="_iO_yhp-t2HHhwFX2R3x-69" value="" style="edgeStyle=none;orthogonalLoop=1;jettySize=auto;html=1;rounded=0;entryX=0.5;entryY=1;entryDx=0;entryDy=0;" parent="_iO_yhp-t2HHhwFX2R3x-102" target="_iO_yhp-t2HHhwFX2R3x-68" edge="1">
          <mxGeometry width="80" relative="1" as="geometry">
            <mxPoint x="160" y="320" as="sourcePoint" />
            <mxPoint x="470" y="110" as="targetPoint" />
            <Array as="points">
              <mxPoint x="380" y="320" />
              <mxPoint x="380" y="110" />
              <mxPoint x="440" y="110" />
            </Array>
          </mxGeometry>
        </mxCell>
        <mxCell id="_iO_yhp-t2HHhwFX2R3x-70" value="D" style="text;html=1;align=center;verticalAlign=middle;resizable=0;points=[];autosize=1;strokeColor=none;fillColor=none;" parent="_iO_yhp-t2HHhwFX2R3x-102" vertex="1">
          <mxGeometry x="195" y="318" width="30" height="30" as="geometry" />
        </mxCell>
        <mxCell id="_iO_yhp-t2HHhwFX2R3x-71" value="" style="edgeStyle=none;orthogonalLoop=1;jettySize=auto;html=1;rounded=0;" parent="_iO_yhp-t2HHhwFX2R3x-102" edge="1">
          <mxGeometry width="80" relative="1" as="geometry">
            <mxPoint y="270" as="sourcePoint" />
            <mxPoint x="110" y="270" as="targetPoint" />
            <Array as="points" />
          </mxGeometry>
        </mxCell>
        <mxCell id="_iO_yhp-t2HHhwFX2R3x-72" value="" style="edgeStyle=none;orthogonalLoop=1;jettySize=auto;html=1;rounded=0;" parent="_iO_yhp-t2HHhwFX2R3x-102" edge="1">
          <mxGeometry width="80" relative="1" as="geometry">
            <mxPoint y="340" as="sourcePoint" />
            <mxPoint x="110" y="340" as="targetPoint" />
            <Array as="points" />
          </mxGeometry>
        </mxCell>
        <mxCell id="_iO_yhp-t2HHhwFX2R3x-73" value="exp_a" style="text;html=1;align=center;verticalAlign=middle;resizable=0;points=[];autosize=1;strokeColor=none;fillColor=none;" parent="_iO_yhp-t2HHhwFX2R3x-102" vertex="1">
          <mxGeometry x="10" y="248" width="60" height="30" as="geometry" />
        </mxCell>
        <mxCell id="_iO_yhp-t2HHhwFX2R3x-74" value="exp_b" style="text;html=1;align=center;verticalAlign=middle;resizable=0;points=[];autosize=1;strokeColor=none;fillColor=none;" parent="_iO_yhp-t2HHhwFX2R3x-102" vertex="1">
          <mxGeometry x="10" y="318" width="60" height="30" as="geometry" />
        </mxCell>
        <mxCell id="_iO_yhp-t2HHhwFX2R3x-75" value="" style="group" parent="_iO_yhp-t2HHhwFX2R3x-102" vertex="1" connectable="0">
          <mxGeometry x="560" y="89" width="50" height="110" as="geometry" />
        </mxCell>
        <mxCell id="_iO_yhp-t2HHhwFX2R3x-76" value="" style="endArrow=none;html=1;rounded=0;" parent="_iO_yhp-t2HHhwFX2R3x-75" edge="1">
          <mxGeometry width="50" height="50" relative="1" as="geometry">
            <mxPoint as="sourcePoint" />
            <mxPoint x="50" y="27.5" as="targetPoint" />
          </mxGeometry>
        </mxCell>
        <mxCell id="_iO_yhp-t2HHhwFX2R3x-77" value="" style="endArrow=none;html=1;rounded=0;" parent="_iO_yhp-t2HHhwFX2R3x-75" edge="1">
          <mxGeometry width="50" height="50" relative="1" as="geometry">
            <mxPoint x="50" y="82.5" as="sourcePoint" />
            <mxPoint x="50" y="27.5" as="targetPoint" />
          </mxGeometry>
        </mxCell>
        <mxCell id="_iO_yhp-t2HHhwFX2R3x-78" value="" style="endArrow=none;html=1;rounded=0;" parent="_iO_yhp-t2HHhwFX2R3x-75" edge="1">
          <mxGeometry width="50" height="50" relative="1" as="geometry">
            <mxPoint y="34.375" as="sourcePoint" />
            <mxPoint as="targetPoint" />
          </mxGeometry>
        </mxCell>
        <mxCell id="_iO_yhp-t2HHhwFX2R3x-79" value="" style="endArrow=none;html=1;rounded=0;" parent="_iO_yhp-t2HHhwFX2R3x-75" edge="1">
          <mxGeometry width="50" height="50" relative="1" as="geometry">
            <mxPoint y="110" as="sourcePoint" />
            <mxPoint y="75.625" as="targetPoint" />
          </mxGeometry>
        </mxCell>
        <mxCell id="_iO_yhp-t2HHhwFX2R3x-80" value="" style="endArrow=none;html=1;rounded=0;" parent="_iO_yhp-t2HHhwFX2R3x-75" edge="1">
          <mxGeometry width="50" height="50" relative="1" as="geometry">
            <mxPoint y="110" as="sourcePoint" />
            <mxPoint x="50" y="82.5" as="targetPoint" />
          </mxGeometry>
        </mxCell>
        <mxCell id="_iO_yhp-t2HHhwFX2R3x-81" value="" style="endArrow=none;html=1;rounded=0;" parent="_iO_yhp-t2HHhwFX2R3x-75" edge="1">
          <mxGeometry width="50" height="50" relative="1" as="geometry">
            <mxPoint y="75.625" as="sourcePoint" />
            <mxPoint x="20" y="55" as="targetPoint" />
          </mxGeometry>
        </mxCell>
        <mxCell id="_iO_yhp-t2HHhwFX2R3x-82" value="" style="endArrow=none;html=1;rounded=0;" parent="_iO_yhp-t2HHhwFX2R3x-75" edge="1">
          <mxGeometry width="50" height="50" relative="1" as="geometry">
            <mxPoint y="34.375" as="sourcePoint" />
            <mxPoint x="20" y="55" as="targetPoint" />
          </mxGeometry>
        </mxCell>
        <mxCell id="_iO_yhp-t2HHhwFX2R3x-83" value="ADD" style="text;html=1;align=center;verticalAlign=middle;resizable=0;points=[];autosize=1;strokeColor=none;fillColor=none;rotation=90;" parent="_iO_yhp-t2HHhwFX2R3x-75" vertex="1">
          <mxGeometry x="11" y="40" width="50" height="30" as="geometry" />
        </mxCell>
        <mxCell id="_iO_yhp-t2HHhwFX2R3x-84" value="" style="edgeStyle=none;orthogonalLoop=1;jettySize=auto;html=1;rounded=0;exitX=0.992;exitY=0.678;exitDx=0;exitDy=0;exitPerimeter=0;" parent="_iO_yhp-t2HHhwFX2R3x-102" source="_iO_yhp-t2HHhwFX2R3x-68" edge="1">
          <mxGeometry width="80" relative="1" as="geometry">
            <mxPoint x="500" y="58.71000000000001" as="sourcePoint" />
            <mxPoint x="560" y="99" as="targetPoint" />
            <Array as="points">
              <mxPoint x="540" y="59" />
              <mxPoint x="540" y="99" />
            </Array>
          </mxGeometry>
        </mxCell>
        <mxCell id="_iO_yhp-t2HHhwFX2R3x-85" value="" style="edgeStyle=none;orthogonalLoop=1;jettySize=auto;html=1;rounded=0;" parent="_iO_yhp-t2HHhwFX2R3x-102" edge="1">
          <mxGeometry width="80" relative="1" as="geometry">
            <mxPoint x="500" y="209.70999999999998" as="sourcePoint" />
            <mxPoint x="560" y="179" as="targetPoint" />
            <Array as="points">
              <mxPoint x="520" y="210" />
              <mxPoint x="540" y="210" />
              <mxPoint x="540" y="179" />
            </Array>
          </mxGeometry>
        </mxCell>
        <mxCell id="_iO_yhp-t2HHhwFX2R3x-87" value="Complement" style="whiteSpace=wrap;html=1;aspect=fixed;rotation=0;" parent="_iO_yhp-t2HHhwFX2R3x-102" vertex="1">
          <mxGeometry x="650" y="110" width="80" height="80" as="geometry" />
        </mxCell>
        <mxCell id="_iO_yhp-t2HHhwFX2R3x-88" value="" style="edgeStyle=none;orthogonalLoop=1;jettySize=auto;html=1;rounded=0;exitX=0.523;exitY=-0.023;exitDx=0;exitDy=0;exitPerimeter=0;" parent="_iO_yhp-t2HHhwFX2R3x-102" source="_iO_yhp-t2HHhwFX2R3x-83" edge="1">
          <mxGeometry width="80" relative="1" as="geometry">
            <mxPoint x="620" y="140" as="sourcePoint" />
            <mxPoint x="650" y="145" as="targetPoint" />
            <Array as="points" />
          </mxGeometry>
        </mxCell>
        <mxCell id="_iO_yhp-t2HHhwFX2R3x-96" style="edgeStyle=elbowEdgeStyle;rounded=0;orthogonalLoop=1;jettySize=auto;html=1;entryX=0.25;entryY=1;entryDx=0;entryDy=0;exitX=1;exitY=0.5;exitDx=0;exitDy=0;exitPerimeter=0;" parent="_iO_yhp-t2HHhwFX2R3x-102" source="_iO_yhp-t2HHhwFX2R3x-90" edge="1">
          <mxGeometry relative="1" as="geometry">
            <mxPoint x="460" y="250" as="targetPoint" />
            <mxPoint x="330" y="450" as="sourcePoint" />
            <Array as="points">
              <mxPoint x="460" y="450" />
            </Array>
          </mxGeometry>
        </mxCell>
        <mxCell id="_iO_yhp-t2HHhwFX2R3x-90" value="" style="verticalLabelPosition=bottom;shadow=0;dashed=0;align=center;html=1;verticalAlign=top;shape=mxgraph.electrical.logic_gates.logic_gate;operation=xor;" parent="_iO_yhp-t2HHhwFX2R3x-102" vertex="1">
          <mxGeometry x="200" y="430" width="110" height="40" as="geometry" />
        </mxCell>
        <mxCell id="_iO_yhp-t2HHhwFX2R3x-92" value="" style="edgeStyle=none;orthogonalLoop=1;jettySize=auto;html=1;rounded=0;entryX=0;entryY=0.25;entryDx=0;entryDy=0;entryPerimeter=0;" parent="_iO_yhp-t2HHhwFX2R3x-102" target="_iO_yhp-t2HHhwFX2R3x-90" edge="1">
          <mxGeometry width="80" relative="1" as="geometry">
            <mxPoint y="440" as="sourcePoint" />
            <mxPoint x="190" y="430" as="targetPoint" />
            <Array as="points" />
          </mxGeometry>
        </mxCell>
        <mxCell id="_iO_yhp-t2HHhwFX2R3x-93" value="" style="endArrow=none;html=1;rounded=0;entryX=0.229;entryY=0.502;entryDx=0;entryDy=0;entryPerimeter=0;" parent="_iO_yhp-t2HHhwFX2R3x-102" target="_iO_yhp-t2HHhwFX2R3x-90" edge="1">
          <mxGeometry width="50" height="50" relative="1" as="geometry">
            <mxPoint x="197.29999999999995" y="450.26" as="sourcePoint" />
            <mxPoint x="222.70999999999998" y="449.74" as="targetPoint" />
            <Array as="points">
              <mxPoint x="197.29999999999995" y="450.26" />
            </Array>
          </mxGeometry>
        </mxCell>
        <mxCell id="_iO_yhp-t2HHhwFX2R3x-94" value="" style="edgeStyle=none;orthogonalLoop=1;jettySize=auto;html=1;rounded=0;entryX=0;entryY=0.25;entryDx=0;entryDy=0;entryPerimeter=0;" parent="_iO_yhp-t2HHhwFX2R3x-102" edge="1">
          <mxGeometry width="80" relative="1" as="geometry">
            <mxPoint x="110" y="460" as="sourcePoint" />
            <mxPoint x="200" y="460" as="targetPoint" />
            <Array as="points" />
          </mxGeometry>
        </mxCell>
        <mxCell id="_iO_yhp-t2HHhwFX2R3x-110" value="op" style="edgeLabel;html=1;align=center;verticalAlign=middle;resizable=0;points=[];" parent="_iO_yhp-t2HHhwFX2R3x-94" vertex="1" connectable="0">
          <mxGeometry x="-0.5558" y="2" relative="1" as="geometry">
            <mxPoint as="offset" />
          </mxGeometry>
        </mxCell>
        <mxCell id="_iO_yhp-t2HHhwFX2R3x-95" value="" style="edgeStyle=none;orthogonalLoop=1;jettySize=auto;html=1;rounded=0;entryX=0;entryY=0.25;entryDx=0;entryDy=0;entryPerimeter=0;" parent="_iO_yhp-t2HHhwFX2R3x-102" edge="1">
          <mxGeometry width="80" relative="1" as="geometry">
            <mxPoint y="450" as="sourcePoint" />
            <mxPoint x="200" y="449.97" as="targetPoint" />
            <Array as="points" />
          </mxGeometry>
        </mxCell>
        <mxCell id="_iO_yhp-t2HHhwFX2R3x-109" value="sign_b" style="edgeLabel;html=1;align=center;verticalAlign=middle;resizable=0;points=[];" parent="_iO_yhp-t2HHhwFX2R3x-95" vertex="1" connectable="0">
          <mxGeometry x="-0.1901" y="2" relative="1" as="geometry">
            <mxPoint as="offset" />
          </mxGeometry>
        </mxCell>
        <mxCell id="_iO_yhp-t2HHhwFX2R3x-97" value="LZD" style="rounded=0;whiteSpace=wrap;html=1;" parent="_iO_yhp-t2HHhwFX2R3x-102" vertex="1">
          <mxGeometry x="770" y="95" width="50" height="110" as="geometry" />
        </mxCell>
        <mxCell id="_iO_yhp-t2HHhwFX2R3x-98" style="edgeStyle=elbowEdgeStyle;rounded=0;orthogonalLoop=1;jettySize=auto;html=1;exitX=1;exitY=0.5;exitDx=0;exitDy=0;entryX=0;entryY=0.5;entryDx=0;entryDy=0;" parent="_iO_yhp-t2HHhwFX2R3x-102" source="_iO_yhp-t2HHhwFX2R3x-87" target="_iO_yhp-t2HHhwFX2R3x-97" edge="1">
          <mxGeometry relative="1" as="geometry" />
        </mxCell>
        <mxCell id="_iO_yhp-t2HHhwFX2R3x-99" value="shift" style="rounded=0;whiteSpace=wrap;html=1;" parent="_iO_yhp-t2HHhwFX2R3x-102" vertex="1">
          <mxGeometry x="850" y="120" width="40" height="60" as="geometry" />
        </mxCell>
        <mxCell id="_iO_yhp-t2HHhwFX2R3x-100" style="edgeStyle=elbowEdgeStyle;rounded=0;orthogonalLoop=1;jettySize=auto;html=1;exitX=1;exitY=0.5;exitDx=0;exitDy=0;entryX=0;entryY=0.5;entryDx=0;entryDy=0;" parent="_iO_yhp-t2HHhwFX2R3x-102" source="_iO_yhp-t2HHhwFX2R3x-97" target="_iO_yhp-t2HHhwFX2R3x-99" edge="1">
          <mxGeometry relative="1" as="geometry" />
        </mxCell>
        <mxCell id="_iO_yhp-t2HHhwFX2R3x-107" value="sign_a" style="text;html=1;align=center;verticalAlign=middle;resizable=0;points=[];autosize=1;strokeColor=none;fillColor=none;" parent="_iO_yhp-t2HHhwFX2R3x-102" vertex="1">
          <mxGeometry x="-5" y="418" width="60" height="30" as="geometry" />
        </mxCell>
        <mxCell id="_iO_yhp-t2HHhwFX2R3x-106" value="" style="endArrow=none;html=1;rounded=0;" parent="_iO_yhp-t2HHhwFX2R3x-111" edge="1">
          <mxGeometry width="50" height="50" relative="1" as="geometry">
            <mxPoint y="460" as="sourcePoint" />
            <mxPoint x="110" y="460" as="targetPoint" />
          </mxGeometry>
        </mxCell>
        <mxCell id="_iO_yhp-t2HHhwFX2R3x-252" value="Pre-Process" style="rounded=0;whiteSpace=wrap;html=1;" parent="1" vertex="1">
          <mxGeometry x="820" y="1560" width="80" height="460" as="geometry" />
        </mxCell>
      </root>
    </mxGraphModel>
  </diagram>
</mxfile>
